<svg xmlns="http://www.w3.org/2000/svg" xmlns:xlink="http://www.w3.org/1999/xlink" width="0" height="0" style="position:absolute">

    <symbol id="header-logo" viewBox="0 0 216 52" fill="none">
        <path d="M44.5497 44.4793C39.5199 49.4931 33.3644 52 26.0832 52C18.8019 52 12.6224 49.4931 7.54471 44.4793C2.5149 39.4178 0 33.258 0 26C0 18.742 2.5149 12.6061 7.54471 7.59229C12.6224 2.53076 18.8019 0 26.0832 0C33.3644 0 39.5199 2.53076 44.5497 7.59229C49.6275 12.6061 52.1663 18.742 52.1663 26C52.1663 33.258 49.6275 39.4178 44.5497 44.4793ZM13.3649 38.8926C16.8139 42.2828 21.0533 43.978 26.0832 43.978C31.113 43.978 35.3284 42.2828 38.7295 38.8926C42.1785 35.4545 43.9031 31.157 43.9031 26C43.9031 20.843 42.1785 16.5693 38.7295 13.1791C35.3284 9.74105 31.113 8.02204 26.0832 8.02204C21.0533 8.02204 16.8139 9.74105 13.3649 13.1791C9.96381 16.5693 8.26326 20.843 8.26326 26C8.26326 31.157 9.96381 35.4545 13.3649 38.8926Z" fill="white"/>
        <path d="M80.2047 52C72.3965 52 67.0074 48.944 64.0375 42.832L71.151 38.6777C72.7797 42.2112 75.8216 43.978 80.2766 43.978C83.1507 43.978 85.3543 43.2856 86.8872 41.9008C88.468 40.4683 89.2584 38.4628 89.2584 35.8843V0.93113H97.5216V35.8843C97.5216 41.0413 95.8929 45.0285 92.6355 47.8457C89.3781 50.6152 85.2345 52 80.2047 52Z" fill="white"/>
        <path d="M128.664 52C120.856 52 115.467 48.944 112.497 42.832L119.611 38.6777C121.239 42.2112 124.281 43.978 128.736 43.978C131.61 43.978 133.814 43.2856 135.347 41.9008C136.928 40.4683 137.718 38.4628 137.718 35.8843V0.93113H145.981V35.8843C145.981 41.0413 144.353 45.0285 141.095 47.8457C137.838 50.6152 133.694 52 128.664 52Z" fill="white"/>
        <path d="M208.383 44.4793C203.354 49.4931 197.198 52 189.917 52C182.636 52 176.456 49.4931 171.378 44.4793C166.349 39.4178 163.834 33.258 163.834 26C163.834 18.742 166.349 12.6061 171.378 7.59229C176.456 2.53076 182.636 0 189.917 0C197.198 0 203.354 2.53076 208.383 7.59229C213.461 12.6061 216 18.742 216 26C216 33.258 213.461 39.4178 208.383 44.4793ZM177.199 38.8926C180.648 42.2828 184.887 43.978 189.917 43.978C194.947 43.978 199.162 42.2828 202.563 38.8926C206.012 35.4545 207.737 31.157 207.737 26C207.737 20.843 206.012 16.5693 202.563 13.1791C199.162 9.74105 194.947 8.02204 189.917 8.02204C184.887 8.02204 180.648 9.74105 177.199 13.1791C173.798 16.5693 172.097 20.843 172.097 26C172.097 31.157 173.798 35.4545 177.199 38.8926Z" fill="white"/>
        <path d="M36.1308 23.933L36.1248 23.8808C36.1137 23.8155 36.0939 23.7524 36.0658 23.6938L33.1246 18.4231C33.1246 18.4231 32.7495 17.9064 32.6604 17.9064H20.1267L16.3574 23.515L16.3128 23.5666L16.3068 23.5909C16.2749 23.6479 16.2488 23.7085 16.2288 23.7718L16.2135 23.8219C16.17 23.9824 16.1721 24.1538 16.2195 24.3129L16.2371 24.3692C16.2608 24.4359 16.2901 24.4968 16.3244 24.5511L25.4373 37.4018L25.4559 37.4313C25.5027 37.4984 25.5598 37.5579 25.6295 37.6121L25.6824 37.6488C25.7344 37.685 25.7887 37.7139 25.8676 37.746L25.9191 37.7651C26.0083 37.7904 26.0858 37.8023 26.1615 37.8023C26.238 37.8023 26.3128 37.7909 26.4135 37.762L26.4753 37.7377C26.5356 37.7139 26.5899 37.6845 26.6554 37.6395L26.6962 37.6111C26.7663 37.5558 26.8225 37.4959 26.8536 37.4488L35.9781 24.5847C36.0588 24.4649 36.1114 24.3246 36.1313 24.1764L36.1382 24.1098L36.1419 24.0571L36.1308 23.933ZM31.238 23.5909L32.5369 20.9745L33.8348 23.5909H31.238ZM30.4591 25.1413H33.5405L28.4045 32.3839L30.4591 25.1413ZM29.6969 22.8065L27.821 19.9735H31.103L29.6969 22.8065ZM23.6882 25.1413H28.6361L26.1615 33.8629L23.6882 25.1413ZM24.1788 23.5909L26.1615 20.5957L28.1441 23.5909H24.1788ZM22.7825 22.5718L21.9228 19.9735H24.5024L22.7825 22.5718ZM23.9193 32.3844L18.7829 25.1413H21.8647L23.9193 32.3844ZM20.4354 20.9926L21.2956 23.5909H18.7156L20.4354 20.9926Z" fill="white"/>
        <path d="M199.799 23.933L199.793 23.8808C199.782 23.8155 199.762 23.7524 199.734 23.6938L196.793 18.4231C196.793 18.4231 196.418 17.9064 196.329 17.9064H183.795L180.026 23.515L179.981 23.5666L179.975 23.5909C179.943 23.6479 179.917 23.7085 179.897 23.7718L179.882 23.8219C179.838 23.9824 179.841 24.1538 179.888 24.3129L179.906 24.3692C179.929 24.4359 179.958 24.4968 179.993 24.5511L189.106 37.4018L189.124 37.4313C189.171 37.4984 189.228 37.5579 189.298 37.6121L189.351 37.6488C189.403 37.685 189.457 37.7139 189.536 37.746L189.588 37.7651C189.677 37.7904 189.754 37.8023 189.83 37.8023C189.906 37.8023 189.981 37.7909 190.082 37.762L190.144 37.7377C190.204 37.7139 190.258 37.6845 190.324 37.6395L190.365 37.6111C190.435 37.5558 190.491 37.4959 190.522 37.4488L199.646 24.5847C199.727 24.4649 199.78 24.3246 199.8 24.1764L199.807 24.1098L199.81 24.0571L199.799 23.933ZM194.906 23.5909L196.205 20.9745L197.503 23.5909H194.906ZM194.127 25.1413H197.209L192.073 32.3839L194.127 25.1413ZM193.365 22.8065L191.489 19.9735H194.771L193.365 22.8065ZM187.357 25.1413H192.305L189.83 33.8629L187.357 25.1413ZM187.847 23.5909L189.83 20.5957L191.812 23.5909H187.847ZM186.451 22.5718L185.591 19.9735H188.171L186.451 22.5718ZM187.588 32.3844L182.451 25.1413H185.533L187.588 32.3844ZM184.104 20.9926L184.964 23.5909H182.384L184.104 20.9926Z" fill="white"/>
    </symbol>
    <symbol id="search-ico" viewBox="0 0 24 24" fill="none">
        <path d="M21 19L15.846 13.846C16.7988 12.3979 17.1805 10.6477 16.917 8.93442C16.6536 7.22111 15.7638 5.66648 14.4199 4.57154C13.076 3.47659 11.3737 2.91923 9.64247 3.00735C7.91125 3.09547 6.27431 3.82281 5.04857 5.04855C3.82283 6.27429 3.09549 7.91123 3.00737 9.64245C2.91925 11.3737 3.47662 13.076 4.57156 14.4199C5.6665 15.7637 7.22113 16.6535 8.93445 16.917C10.6478 17.1804 12.3979 16.7988 13.846 15.846L19 21L21 19ZM5 9.99998C5 7.24298 7.243 4.99998 10 4.99998C12.757 4.99998 15 7.24298 15 9.99998C15 12.757 12.757 15 10 15C7.243 15 5 12.757 5 9.99998Z" fill="white"/>
    </symbol>
    <symbol id="account-ico" viewBox="0 0 24 24" fill="none" >
        <path d="M12 4C13.0609 4 14.0783 4.42143 14.8284 5.17157C15.5786 5.92172 16 6.93913 16 8C16 9.06087 15.5786 10.0783 14.8284 10.8284C14.0783 11.5786 13.0609 12 12 12C10.9391 12 9.92172 11.5786 9.17157 10.8284C8.42143 10.0783 8 9.06087 8 8C8 6.93913 8.42143 5.92172 9.17157 5.17157C9.92172 4.42143 10.9391 4 12 4ZM12 14C16.42 14 20 15.79 20 18V20H4V18C4 15.79 7.58 14 12 14Z" fill="white"/>
    </symbol>
    <symbol id="heart-ico" viewBox="0 0 18 18" fill="none" >
        <path d="M8.97342 4.59641C6.21857 0.341121 0.642853 2.65926 0.642853 7.29469C0.642853 10.7755 8.28685 16.2205 8.97342 16.9285C9.66471 16.2205 16.9286 10.7755 16.9286 7.29469C16.9286 2.69441 11.7334 0.341121 8.97342 4.59641Z" fill="white"/>
    </symbol>
    <symbol id="newsletter-ico" viewBox="0 0 17 17" fill="none">
        <path d="M11 8.5L7.25 10.6651L7.25 6.33494L11 8.5Z" fill="white"/>
        <path d="M4.75 2.00481L16 8.5L4.75 14.9952L4.75 2.00481Z" stroke="white"/>
    </symbol>
    <symbol id="phone-ico" viewBox="0 0 20 20" fill="none">
        <path d="M17.256 12.253C17.16 11.586 16.645 11.066 15.982 10.911C13.405 10.307 12.759 8.823 12.65 7.177C12.193 7.092 11.38 7 10 7C8.62 7 7.807 7.092 7.35 7.177C7.241 8.823 6.595 10.307 4.018 10.911C3.355 11.067 2.84 11.586 2.744 12.253L2.247 15.695C2.072 16.907 2.962 18 4.2 18H15.8C17.037 18 17.928 16.907 17.753 15.695L17.256 12.253ZM10 15.492C8.605 15.492 7.474 14.372 7.474 12.992C7.474 11.612 8.605 10.492 10 10.492C11.395 10.492 12.526 11.612 12.526 12.992C12.526 14.372 11.394 15.492 10 15.492ZM19.95 6C19.926 4.5 16.108 2.001 10 2C3.891 2.001 0.0729981 4.5 0.0499981 6C0.0269981 7.5 0.0709982 9.452 2.585 9.127C5.526 8.746 5.345 7.719 5.345 6.251C5.345 5.227 7.737 4.98 10 4.98C12.263 4.98 14.654 5.227 14.655 6.251C14.655 7.719 14.474 8.746 17.415 9.127C19.928 9.452 19.973 7.5 19.95 6Z" fill="#333333"/>
    </symbol>
    <symbol id="mail-ico" viewBox="0 0 20 20" fill="none">
        <path d="M1.574 5.286L9.074 9.315C9.326 9.45 9.652 9.514 9.98 9.514C10.308 9.514 10.634 9.45 10.886 9.315L18.386 5.286C18.875 5.023 19.337 4 18.44 4H1.521C0.624002 4 1.086 5.023 1.574 5.286ZM18.613 7.489L10.886 11.516C10.546 11.694 10.308 11.715 9.98 11.715C9.652 11.715 9.414 11.694 9.074 11.516C8.734 11.338 1.941 7.777 1.386 7.488C0.996002 7.284 1 7.523 1 7.707V15C1 15.42 1.566 16 2 16H18C18.434 16 19 15.42 19 15V7.708C19 7.524 19.004 7.285 18.613 7.489Z" fill="#333333"/>
    </symbol>
    <symbol id="youtube-ico" viewBox="0 0 26 26">
        <path d="M23.8956 7.52385C23.7662 7.04288 23.5127 6.60435 23.1605 6.25215C22.8083 5.89995 22.3697 5.64643 21.8888 5.51697C20.1175 5.0376 13 5.0376 13 5.0376C13 5.0376 5.8825 5.0376 4.11125 5.51697C3.63029 5.64643 3.19176 5.89995 2.83956 6.25215C2.48736 6.60435 2.23384 7.04288 2.10438 7.52385C1.77365 9.33025 1.61315 11.1637 1.625 13.0001C1.61315 14.8365 1.77365 16.6699 2.10438 18.4763C2.23384 18.9573 2.48736 19.3958 2.83956 19.748C3.19176 20.1002 3.63029 20.3538 4.11125 20.4832C5.8825 20.9626 13 20.9626 13 20.9626C13 20.9626 20.1175 20.9626 21.8888 20.4832C22.3697 20.3538 22.8083 20.1002 23.1605 19.748C23.5127 19.3958 23.7662 18.9573 23.8956 18.4763C24.2264 16.6699 24.3869 14.8365 24.375 13.0001C24.3869 11.1637 24.2264 9.33025 23.8956 7.52385ZM10.725 16.4126V9.5876L16.6319 13.0001L10.725 16.4126Z"/>
    </symbol>
    <symbol id="vk-ico" viewBox="0 0 24 24">
        <g clip-path="url(#clip0)">
            <path fill-rule="evenodd" clip-rule="evenodd" d="M21.3624 14.7577C21.3624 14.7577 23.3028 16.6741 23.7828 17.5609C23.7922 17.5736 23.7994 17.5878 23.8044 17.6029C24 17.9305 24.048 18.1873 23.952 18.3769C23.79 18.6901 23.2416 18.8473 23.0556 18.8605H19.626C19.3872 18.8605 18.8904 18.7981 18.2856 18.3805C17.8236 18.0577 17.364 17.5261 16.9188 17.0065C16.254 16.2349 15.6792 15.5653 15.0972 15.5653C15.0237 15.5651 14.9507 15.5773 14.8812 15.6013C14.4408 15.7405 13.8816 16.3681 13.8816 18.0397C13.8816 18.5629 13.4688 18.8605 13.1796 18.8605H11.6088C11.0736 18.8605 8.28722 18.6733 5.81642 16.0681C2.78882 12.8785 0.0696241 6.48005 0.0432241 6.42365C-0.125976 6.00965 0.229224 5.78405 0.613224 5.78405H4.07642C4.54082 5.78405 4.69202 6.06485 4.79762 6.31685C4.92002 6.60605 5.37362 7.76285 6.11762 9.06245C7.32242 11.1768 8.06282 12.0373 8.65442 12.0373C8.76557 12.0376 8.87484 12.0086 8.97122 11.9533C9.74402 11.5285 9.60002 8.76845 9.56402 8.19965C9.56402 8.08925 9.56282 6.96725 9.16682 6.42485C8.88362 6.03605 8.40122 5.88485 8.10962 5.82965C8.18762 5.71685 8.35322 5.54405 8.56562 5.44205C9.09482 5.17805 10.0512 5.13965 11.0004 5.13965H11.5272C12.5568 5.15405 12.8232 5.22005 13.1976 5.31485C13.9512 5.49485 13.9656 5.98325 13.8996 7.64645C13.8804 8.12165 13.86 8.65685 13.86 9.28685C13.86 9.42125 13.854 9.57125 13.854 9.72365C13.8312 10.5768 13.8012 11.5381 14.4036 11.9329C14.4818 11.9815 14.572 12.0073 14.664 12.0072C14.8728 12.0072 15.498 12.0072 17.1936 9.09725C17.9376 7.81205 18.5136 6.29645 18.5532 6.18245C18.5868 6.11885 18.6876 5.94005 18.81 5.86805C18.8971 5.82172 18.9946 5.79858 19.0932 5.80085H23.1672C23.6112 5.80085 23.9124 5.86805 23.9712 6.03605C24.0696 6.30845 23.952 7.14005 22.092 9.65525C21.7788 10.074 21.504 10.4365 21.2628 10.7533C19.5768 12.9661 19.5768 13.0777 21.3624 14.7577Z"/>
        </g>
        <defs>
            <clipPath id="clip0">
                <rect width="24" height="24" fill="white"/>
            </clipPath>
        </defs>
    </symbol>
    <symbol id="fb-ico" viewBox="0 0 26 26">
        <path d="M14.5134 22.7467V13.8677H17.5088L17.9541 10.3913H14.5134V8.17694C14.5134 7.17377 14.7929 6.48694 16.2327 6.48694H18.057V3.38752C17.1694 3.2924 16.2771 3.24646 15.3844 3.24994C12.7367 3.24994 10.9189 4.86627 10.9189 7.83352V10.3848H7.94299V13.8612H10.9254V22.7467H14.5134Z"/>
    </symbol>
    <symbol id="tg-ico" viewBox="0 0 24 24">
        <path d="M20.665 3.71706L2.935 10.5541C1.725 11.0401 1.732 11.7151 2.713 12.0161L7.265 13.4361L17.797 6.79106C18.295 6.48806 18.75 6.65106 18.376 6.98306L9.843 14.6841H9.841L9.843 14.6851L9.529 19.3771C9.989 19.3771 10.192 19.1661 10.45 18.9171L12.661 16.7671L17.26 20.1641C18.108 20.6311 18.717 20.3911 18.928 19.3791L21.947 5.15106C22.256 3.91206 21.474 3.35106 20.665 3.71706Z"/>
    </symbol>
    <symbol id="ethernet-ico" viewBox="0 0 16 16">
        <path d="M5.70932 1.63C5.70932 1.41333 5.73132 1.28333 6.10265 1.28333H11.0793C11.946 1.28333 12.426 2.02333 12.7727 3.412L13.0527 4.52267H13.8993C14.0527 1.37067 14.186 0 14.186 0C14.186 0 12.0553 0.24 10.7927 0.24H4.42665L1.01732 0.130667V1.044L2.16732 1.26133C2.97399 1.42133 3.16732 1.592 3.23399 2.332C3.23399 2.332 3.30732 4.512 3.30732 8.092C3.30732 11.682 3.24732 13.832 3.24732 13.832C3.24732 14.4807 2.98732 14.7207 2.18732 14.8807L1.03932 15.1007V16L4.45932 15.89H10.1593C11.4493 15.89 14.4193 16 14.4193 16C14.4893 15.22 14.9193 11.68 14.9893 11.2907H14.1893L13.3333 13.2307C12.6633 14.7507 11.6827 14.8607 10.5933 14.8607H7.32265C6.23599 14.8607 5.71265 14.434 5.71265 13.494V8.53333C5.71265 8.53333 8.12599 8.53333 8.90598 8.59733C9.51398 8.64 9.88132 8.814 10.0793 9.66267L10.3393 10.7927H11.2793L11.2193 7.94067L11.3473 5.07067H10.42L10.12 6.33067C9.93132 7.16 9.79998 7.31067 8.95065 7.39733C7.83998 7.51067 5.74065 7.49067 5.74065 7.49067V1.63333H5.70732L5.70932 1.63Z"/>
    </symbol>
    <symbol id="contacts-geo" width="20" height="20" fill="none">
        <path d="M15.8337 7.49996C15.8337 6.73392 15.6828 5.97537 15.3896 5.26764C15.0965 4.55991 14.6668 3.91684 14.1251 3.37517C13.5834 2.83349 12.9404 2.40381 12.2326 2.11066C11.5249 1.81751 10.7664 1.66663 10.0003 1.66663C9.23428 1.66663 8.47574 1.81751 7.76801 2.11066C7.06027 2.40381 6.41721 2.83349 5.87554 3.37517C5.33386 3.91684 4.90418 4.55991 4.61103 5.26764C4.31788 5.97537 4.16699 6.73392 4.16699 7.49996C4.16699 8.65579 4.50866 9.73079 5.08783 10.6375H5.08116C7.04783 13.7166 10.0003 18.3333 10.0003 18.3333L14.9195 10.6375H14.9137C15.514 9.7011 15.8333 8.61224 15.8337 7.49996ZM10.0003 9.99996C9.33729 9.99996 8.7014 9.73657 8.23256 9.26773C7.76372 8.79889 7.50033 8.163 7.50033 7.49996C7.50033 6.83692 7.76372 6.20103 8.23256 5.73219C8.7014 5.26335 9.33729 4.99996 10.0003 4.99996C10.6634 4.99996 11.2993 5.26335 11.7681 5.73219C12.2369 6.20103 12.5003 6.83692 12.5003 7.49996C12.5003 8.163 12.2369 8.79889 11.7681 9.26773C11.2993 9.73657 10.6634 9.99996 10.0003 9.99996Z" fill="#333333"/>
    </symbol>
    <symbol id="contacts-phone" width="20" height="20" fill="none" >
        <path d="M12.7068 13.425L14.1068 12.025C14.2953 11.8388 14.5339 11.7113 14.7935 11.6581C15.0531 11.6048 15.3226 11.6281 15.5693 11.725L17.2755 12.4063C17.5248 12.5074 17.7385 12.6801 17.8898 12.9026C18.041 13.125 18.1231 13.3873 18.1255 13.6563V16.7813C18.1241 16.9643 18.0856 17.1451 18.0124 17.3128C17.9393 17.4805 17.8329 17.6317 17.6998 17.7573C17.5666 17.8828 17.4095 17.9801 17.2377 18.0433C17.066 18.1065 16.8833 18.1343 16.7005 18.125C4.74426 17.3813 2.33176 7.25628 1.87551 3.38128C1.85433 3.19099 1.87368 2.99837 1.93229 2.81609C1.9909 2.63382 2.08744 2.46602 2.21555 2.32374C2.34367 2.18145 2.50046 2.0679 2.67561 1.99057C2.85076 1.91323 3.0403 1.87385 3.23176 1.87503H6.25051C6.51989 1.87582 6.78287 1.95719 7.00563 2.10867C7.22839 2.26015 7.40074 2.4748 7.50051 2.72503L8.18176 4.43128C8.28192 4.67694 8.30747 4.94668 8.25523 5.20678C8.20299 5.46689 8.07526 5.70584 7.88801 5.89378L6.48801 7.29378C6.48801 7.29378 7.29426 12.75 12.7068 13.425Z" fill="#333333"/>
    </symbol>
    <symbol id="contacts-mail" width="20" height="20" fill="none" >
        <path d="M17.1886 4.03784H2.811C2.67544 4.038 2.54548 4.09194 2.44964 4.18782C2.3538 4.28369 2.29991 4.41368 2.2998 4.54924V5.57804C2.2998 5.62544 2.3512 5.67984 2.3932 5.70184L9.9504 10.0184C9.96976 10.0295 9.99171 10.0352 10.014 10.035C10.0368 10.0351 10.0592 10.029 10.0788 10.0174L17.4076 5.70604C17.4488 5.68304 17.558 5.62224 17.599 5.59424C17.6486 5.56044 17.6998 5.52984 17.6998 5.46924V4.54904C17.6996 4.41351 17.6457 4.28358 17.5499 4.18774C17.4541 4.09191 17.3241 4.038 17.1886 4.03784Z" fill="#333333"/>
        <path d="M17.6365 7.12922C17.6169 7.118 17.5946 7.11217 17.5719 7.11231C17.5493 7.11245 17.5271 7.11856 17.5075 7.13002L13.3601 9.57022C13.3436 9.57985 13.3295 9.59308 13.3187 9.60892C13.308 9.62477 13.301 9.64282 13.2982 9.66174C13.2954 9.68067 13.297 9.69997 13.3027 9.71823C13.3083 9.73649 13.3181 9.75324 13.3311 9.76722L17.4791 14.2386C17.491 14.2515 17.5055 14.2618 17.5215 14.2688C17.5376 14.2759 17.555 14.2795 17.5725 14.2794C17.6064 14.2794 17.6389 14.2659 17.6628 14.2419C17.6868 14.218 17.7003 14.1855 17.7003 14.1516V7.24022C17.7004 7.21774 17.6946 7.19563 17.6834 7.17614C17.6722 7.15665 17.656 7.14046 17.6365 7.12922Z" fill="#333333"/>
        <path d="M12.1648 10.3897C12.1451 10.3682 12.1186 10.3542 12.0898 10.3499C12.061 10.3456 12.0316 10.3513 12.0066 10.3661L10.3442 11.3443C10.2468 11.4006 10.1364 11.4305 10.0239 11.4313C9.91142 11.432 9.80068 11.4035 9.70255 11.3485L8.23955 10.5127C8.21593 10.4992 8.18865 10.4936 8.16164 10.4967C8.13464 10.4998 8.10932 10.5114 8.08935 10.5299L2.53375 15.6831C2.51919 15.6967 2.508 15.7135 2.5011 15.7322C2.49419 15.7509 2.49174 15.771 2.49396 15.7908C2.49617 15.8106 2.50298 15.8296 2.51385 15.8464C2.52472 15.8631 2.53934 15.877 2.55655 15.8871C2.64295 15.9379 2.72635 15.9621 2.81115 15.9621H17.0418C17.0667 15.9621 17.091 15.9549 17.1118 15.9412C17.1326 15.9275 17.1489 15.908 17.1588 15.8851C17.1687 15.8623 17.1718 15.8371 17.1676 15.8126C17.1634 15.7881 17.1521 15.7654 17.1352 15.7473L12.1648 10.3897Z" fill="#333333"/>
        <path d="M6.86661 9.92028C6.88132 9.90668 6.89263 9.88981 6.89962 9.87102C6.90661 9.85224 6.90909 9.83208 6.90685 9.81217C6.90461 9.79225 6.89772 9.77314 6.88673 9.75638C6.87575 9.73962 6.86097 9.72568 6.84361 9.71568L2.49041 7.22928C2.47098 7.21825 2.449 7.21252 2.42666 7.21265C2.40432 7.21278 2.3824 7.21877 2.36311 7.23003C2.34381 7.24129 2.32781 7.25742 2.3167 7.2768C2.30559 7.29618 2.29977 7.31814 2.29981 7.34048V13.8645C2.29967 13.8894 2.30683 13.9138 2.32043 13.9347C2.33402 13.9556 2.35343 13.972 2.37627 13.982C2.39911 13.9919 2.42437 13.995 2.44892 13.9907C2.47347 13.9865 2.49624 13.9751 2.51441 13.9581L6.86661 9.92028Z" fill="#333333"/>
    </symbol>




</svg>


